<?xml version="1.0" encoding="iso-8859-1"?>
<!-- Generator: Adobe Illustrator 19.0.0, SVG Export Plug-In . SVG Version: 6.00 Build 0)  -->
<svg version="1.1" id="Layer_1" xmlns="http://www.w3.org/2000/svg" xmlns:xlink="http://www.w3.org/1999/xlink" x="0px" y="0px"
	 viewBox="0 0 512 512" style="enable-background:new 0 0 512 512;" xml:space="preserve">
<path style="fill:#F1EDE8;" d="M289.668,126.422c-19.701,53.195-21.939,114.233-6.333,164.522
	c44.598-27.991,82.658-75.763,102.359-128.957c18.21-49.169,22.324-107.262,10.517-155.487c-1.433-5.851-8.346-8.412-13.244-4.906
	C342.597,30.496,307.878,77.253,289.668,126.422z"/>
<path style="fill:#FF8397;" d="M289.697,281.6c-4.011-36.189,0.618-75.379,13.6-110.433c10.85-29.295,28.044-57.463,48.729-80.683
	c5.126-5.755,14.724-2.199,14.866,5.506c0.57,31.091-4.733,63.665-15.582,92.96C338.328,224.002,316.311,256.754,289.697,281.6z"/>
<path style="fill:#F36280;" d="M366.892,95.99c-0.141-7.706-9.74-11.261-14.866-5.506c-5.18,5.814-10.141,11.94-14.838,18.317
	c3.879,14.319,5.942,29.33,5.942,44.8c0,48.727-20.481,92.902-53.699,125.206c0.092,0.93,0.164,1.867,0.267,2.794
	c26.614-24.846,48.631-57.598,61.614-92.651C362.159,159.655,367.462,127.08,366.892,95.99z"/>
<path style="fill:#F1EDE8;" d="M222.332,126.422c19.701,53.195,21.939,114.233,6.333,164.522
	c-44.598-27.991-82.658-75.763-102.359-128.957C108.095,112.818,103.981,54.725,115.788,6.5c1.433-5.851,8.346-8.412,13.244-4.906
	C169.402,30.496,204.121,77.253,222.332,126.422z"/>
<path style="fill:#FF8397;" d="M222.303,281.6c4.011-36.189-0.618-75.379-13.6-110.433c-10.85-29.295-28.044-57.463-48.729-80.683
	c-5.126-5.755-14.724-2.199-14.866,5.506c-0.57,31.091,4.733,63.665,15.582,92.96C173.671,224.002,195.688,256.754,222.303,281.6z"
	/>
<path style="fill:#F36280;" d="M145.108,95.99c0.141-7.706,9.74-11.261,14.866-5.506c5.18,5.814,10.141,11.94,14.838,18.317
	c-3.879,14.319-5.942,29.33-5.942,44.8c0,48.727,20.481,92.902,53.699,125.206c-0.092,0.93-0.164,1.867-0.267,2.794
	c-26.614-24.846-48.631-57.598-61.614-92.651C149.841,159.655,144.537,127.08,145.108,95.99z"/>
<ellipse style="fill:#D6CABB;" cx="256.352" cy="426.314" rx="102.048" ry="85.685"/>
<path style="fill:#FFFFFF;" d="M230.4,426.666h51.2l-7.487,52.406c-0.601,4.204-4.201,7.327-8.448,7.327h-19.331
	c-4.246,0-7.847-3.122-8.448-7.327L230.4,426.666z"/>
<circle style="fill:#F1EDE8;" cx="256.352" cy="358.752" r="85.685"/>
<path style="fill:#E3DCD2;" d="M272.711,427.378c-47.325,0-85.689-38.364-85.689-85.689c0-18.738,6.032-36.059,16.237-50.162
	c-19.844,15.693-32.593,39.964-32.593,67.228c0,47.325,38.364,85.689,85.689,85.689c28.587,0,53.886-14.011,69.453-35.526
	C311.207,420.465,292.772,427.378,272.711,427.378z"/>
<circle style="fill:#F1EDE8;" cx="350.218" cy="427.018" r="67.915"/>
<path style="fill:#E3DCD2;" d="M387.563,370.306c8.042,11.158,12.793,24.845,12.793,39.65c0,37.506-30.404,67.911-67.911,67.911
	c-13.797,0-26.625-4.126-37.341-11.195c12.332,17.109,32.417,28.26,55.119,28.26c37.506,0,67.911-30.405,67.911-67.911
	C418.133,403.313,405.975,382.453,387.563,370.306z"/>
<circle style="fill:#F1EDE8;" cx="161.781" cy="427.018" r="67.915"/>
<path style="fill:#E3DCD2;" d="M178.845,477.866c-37.506,0-67.911-30.405-67.911-67.911c0-14.394,4.491-27.731,12.129-38.716
	c-17.639,12.266-29.196,32.67-29.196,55.782c0,37.506,30.405,67.911,67.911,67.911c23.113,0,43.517-11.556,55.782-29.196
	C206.576,473.376,193.237,477.866,178.845,477.866z"/>
<circle style="fill:#F36280;" cx="256" cy="401.066" r="25.6"/>
<path style="fill:#E05161;" d="M264.533,418.133c-14.139,0-25.6-11.461-25.6-25.6c0-4.882,1.367-9.444,3.74-13.327
	c-7.36,4.496-12.273,12.604-12.273,21.86c0,14.139,11.461,25.6,25.6,25.6c9.257,0,17.364-4.913,21.86-12.273
	C273.977,416.766,269.415,418.133,264.533,418.133z"/>
<g>
	<circle style="fill:#754F1E;" cx="290.133" cy="366.933" r="8.533"/>
	<circle style="fill:#754F1E;" cx="221.866" cy="366.933" r="8.533"/>
</g>
<circle style="fill:#FF8397;" cx="264.533" cy="392.533" r="8.533"/>
<g>
</g>
<g>
</g>
<g>
</g>
<g>
</g>
<g>
</g>
<g>
</g>
<g>
</g>
<g>
</g>
<g>
</g>
<g>
</g>
<g>
</g>
<g>
</g>
<g>
</g>
<g>
</g>
<g>
</g>
</svg>
